# Blender v2.77 (sub 0) OBJ File: ''
# www.blender.org
mtllib subscale_fin_v1.mtl
o mesh_1_subscale.001
v -0.074797 -0.039238 -0.001588
v 0.019025 0.049662 -0.001587
v 0.019025 -0.039238 -0.001588
v 0.112847 0.021087 -0.001587
v 0.112847 -0.039238 -0.001588
v 0.112847 0.084587 -0.001587
v 0.112847 0.049662 -0.001587
v 0.039822 -0.067813 -0.001588
v 0.019025 -0.075047 -0.001588
v -0.074797 -0.128138 -0.001588
v -0.056032 -0.155126 -0.001588
v -0.074797 -0.217038 -0.001588
v -0.074797 0.049662 -0.001587
v 0.019025 0.117221 -0.001587
v -0.074796 0.138562 -0.001587
v -0.035210 0.135387 -0.001587
v -0.035210 0.138562 -0.001587
v -0.033203 0.135387 -0.001587
v -0.047852 -0.128138 -0.001588
v -0.033203 -0.093213 -0.001588
v -0.037267 -0.093213 -0.001588
v 0.112847 -0.042413 -0.001588
v 0.039822 0.109987 -0.001587
v 0.039822 -0.067813 -0.001588
v 0.019025 -0.075047 0.001587
v 0.019025 -0.075047 -0.001588
v -0.033203 -0.093213 0.001587
v -0.033203 -0.093213 -0.001588
v 0.039822 -0.067813 0.001587
v 0.112847 -0.042413 0.001587
v 0.112847 -0.042413 -0.001588
v -0.033203 -0.093213 -0.001588
v -0.037267 -0.093213 0.001587
v -0.037267 -0.093213 -0.001588
v -0.033203 -0.093213 0.001587
v -0.074797 -0.217038 -0.001588
v -0.056032 -0.155126 0.001587
v -0.074797 -0.217038 0.001587
v -0.056032 -0.155126 -0.001588
v -0.047852 -0.128138 -0.001588
v -0.047852 -0.128138 0.001587
v -0.037267 -0.093213 -0.001588
v -0.037267 -0.093213 0.001587
v -0.074797 0.049662 -0.001587
v -0.074797 -0.039238 0.001587
v -0.074797 0.049662 0.001588
v -0.074796 0.138562 -0.001587
v -0.074796 0.138562 0.001588
v -0.074797 -0.039238 -0.001588
v -0.074797 -0.217038 0.001587
v -0.074797 -0.128138 -0.001588
v -0.074797 -0.217038 -0.001588
v -0.074797 -0.128138 0.001587
v -0.035210 0.138562 0.001588
v -0.074796 0.138562 -0.001587
v -0.074796 0.138562 0.001588
v -0.035210 0.138562 -0.001587
v -0.035210 0.138562 0.001588
v -0.035210 0.135387 -0.001587
v -0.035210 0.138562 -0.001587
v -0.035210 0.135387 0.001588
v -0.033203 0.135387 0.001588
v -0.035210 0.135387 -0.001587
v -0.035210 0.135387 0.001588
v -0.033203 0.135387 -0.001587
v 0.039822 0.109987 0.001588
v 0.112847 0.084587 -0.001587
v 0.039822 0.109987 -0.001587
v 0.112847 0.084587 0.001588
v 0.019025 0.117221 -0.001587
v -0.033203 0.135387 0.001588
v 0.019025 0.117221 0.001588
v -0.033203 0.135387 -0.001587
v 0.112847 0.021087 -0.001587
v 0.112847 0.049662 0.001588
v 0.112847 0.021087 0.001588
v 0.112847 -0.039238 -0.001588
v 0.112847 -0.039238 0.001587
v 0.112847 -0.042413 0.001587
v 0.112847 -0.042413 -0.001588
v 0.112847 0.049662 -0.001587
v 0.112847 0.084587 0.001588
v 0.112847 0.084587 -0.001587
v -0.033203 -0.093213 0.001587
v -0.074797 -0.039238 0.001587
v -0.037267 -0.093213 0.001587
v -0.074797 -0.128138 0.001587
v -0.047852 -0.128138 0.001587
v 0.112847 -0.042413 0.001587
v 0.019025 -0.039238 0.001587
v 0.039822 -0.067813 0.001587
v 0.019025 -0.075047 0.001587
v -0.056032 -0.155126 0.001587
v -0.074797 -0.217038 0.001587
v -0.074797 0.049662 0.001588
v -0.033203 0.135387 0.001588
v -0.035210 0.135387 0.001588
v 0.019025 0.117221 0.001588
v -0.074796 0.138562 0.001588
v 0.019025 0.049662 0.001588
v 0.039822 0.109987 0.001588
v 0.112847 0.021087 0.001588
v 0.112847 0.049662 0.001588
v 0.112847 -0.039238 0.001587
v 0.112847 0.084587 0.001588
v -0.035210 0.138562 0.001588
vt -0.0603 -0.0416
vt 0.0286 0.0522
vt -0.0603 0.0522
vt 0.0000 0.1461
vt -0.0603 0.1461
vt 0.0635 0.1461
vt 0.0286 0.1461
vt -0.0889 0.0730
vt -0.0961 0.0522
vt -0.1492 -0.0416
vt -0.1762 -0.0228
vt -0.2381 -0.0416
vt 0.0286 -0.0416
vt 0.0961 0.0522
vt 0.1175 -0.0416
vt 0.1143 -0.0020
vt 0.1175 -0.0020
vt 0.1143 0.0000
vt -0.1492 -0.0146
vt -0.1143 0.0000
vt -0.1143 -0.0041
vt -0.0635 0.1461
vt 0.0889 0.0730
vt 0.0773 0.0032
vt 0.0993 0.0000
vt 0.0993 0.0032
vt 0.1546 0.0000
vt 0.1546 0.0032
vt 0.0773 0.0000
vt 0.0000 0.0000
vt 0.0000 0.0032
vt 0.0032 0.0000
vt 0.0000 -0.0041
vt 0.0032 -0.0041
vt 0.0000 0.0000
vt 0.1294 0.0032
vt 0.0647 0.0000
vt 0.1294 0.0000
vt 0.0647 0.0032
vt 0.0365 0.0032
vt 0.0365 0.0000
vt -0.0000 0.0032
vt -0.0000 0.0000
vt 0.2667 0.0032
vt 0.1778 0.0000
vt 0.2667 0.0000
vt 0.3556 0.0032
vt 0.3556 0.0000
vt 0.1778 0.0032
vt -0.0000 0.0000
vt 0.0889 0.0032
vt -0.0000 0.0032
vt 0.0889 0.0000
vt 0.0000 0.0396
vt -0.0032 0.0000
vt 0.0000 0.0000
vt -0.0032 0.0396
vt 0.0000 0.0000
vt 0.0032 0.0032
vt 0.0000 0.0032
vt 0.0032 0.0000
vt 0.0000 0.0020
vt -0.0032 0.0000
vt 0.0000 0.0000
vt -0.0032 0.0020
vt 0.0773 0.0000
vt 0.1546 0.0032
vt 0.0773 0.0032
vt 0.1546 0.0000
vt 0.0553 0.0032
vt 0.0000 0.0000
vt 0.0553 0.0000
vt 0.0000 0.0032
vt 0.0635 0.0032
vt 0.0349 0.0000
vt 0.0635 0.0000
vt 0.1238 0.0032
vt 0.1238 0.0000
vt 0.1270 0.0000
vt 0.1270 0.0032
vt 0.0349 0.0032
vt 0.0000 0.0000
vt 0.0000 0.0032
vt -0.1143 0.0000
vt -0.0603 -0.0416
vt -0.1143 -0.0041
vt -0.1492 -0.0416
vt -0.1492 -0.0146
vt -0.0635 0.1461
vt -0.0603 0.0522
vt -0.0889 0.0730
vt -0.0961 0.0522
vt -0.1762 -0.0228
vt -0.2381 -0.0416
vt 0.0286 -0.0416
vt 0.1143 0.0000
vt 0.1143 -0.0020
vt 0.0961 0.0522
vt 0.1175 -0.0416
vt 0.0286 0.0522
vt 0.0889 0.0730
vt 0.0000 0.1461
vt 0.0286 0.1461
vt -0.0603 0.1461
vt 0.0635 0.1461
vt 0.1175 -0.0020
vn 0.0000 0.0000 -1.0000
vn 0.3285 -0.9445 0.0000
vn 0.0000 -1.0000 0.0000
vn 0.9570 -0.2901 0.0000
vn 0.9570 -0.2900 0.0000
vn -1.0000 0.0000 0.0000
vn 0.0000 1.0000 0.0000
vn 1.0000 -0.0000 0.0000
vn 0.3285 0.9445 0.0000
vn 0.0000 -0.0000 1.0000
usemtl 1.010
s 1
f 1/1/1 2/2/1 3/3/1
f 3/3/1 4/4/1 5/5/1
f 2/2/1 6/6/1 7/7/1
f 3/3/1 8/8/1 9/9/1
f 10/10/1 11/11/1 12/12/1
f 13/13/1 14/14/1 2/2/1
f 15/15/1 16/16/1 13/13/1
f 16/16/1 15/15/1 17/17/1
f 18/18/1 13/13/1 16/16/1
f 14/14/1 13/13/1 18/18/1
f 11/11/1 10/10/1 19/19/1
f 1/1/1 20/20/1 21/21/1
f 1/1/1 9/9/1 20/20/1
f 21/21/1 10/10/1 1/1/1
f 9/9/1 1/1/1 3/3/1
f 3/3/1 22/22/1 8/8/1
f 22/22/1 3/3/1 5/5/1
f 23/23/1 2/2/1 14/14/1
f 6/6/1 2/2/1 23/23/1
f 4/4/1 2/2/1 7/7/1
f 4/4/1 3/3/1 2/2/1
f 2/2/1 1/1/1 13/13/1
f 10/10/1 21/21/1 19/19/1
f 24/24/2 25/25/2 26/26/2
f 27/27/2 26/26/2 25/25/2
f 26/26/2 27/27/2 28/28/2
f 25/25/2 24/24/2 29/29/2
f 24/24/2 30/30/2 29/29/2
f 30/30/2 24/24/2 31/31/2
f 32/32/3 33/33/3 34/34/3
f 33/33/3 32/32/3 35/35/3
f 36/36/4 37/37/4 38/38/4
f 37/37/4 36/36/4 39/39/4
f 37/37/4 40/40/4 41/41/4
f 40/40/4 37/37/4 39/39/4
f 41/41/4 42/42/5 43/43/5
f 42/42/5 41/41/4 40/40/4
f 44/44/6 45/45/6 46/46/6
f 47/47/6 46/46/6 48/48/6
f 46/46/6 47/47/6 44/44/6
f 45/45/6 44/44/6 49/49/6
f 50/50/6 51/51/6 52/52/6
f 53/53/6 49/49/6 51/51/6
f 51/51/6 50/50/6 53/53/6
f 49/49/6 53/53/6 45/45/6
f 54/54/7 55/55/7 56/56/7
f 55/55/7 54/54/7 57/57/7
f 58/58/8 59/59/8 60/60/8
f 59/59/8 58/58/8 61/61/8
f 62/62/7 63/63/7 64/64/7
f 63/63/7 62/62/7 65/65/7
f 66/66/9 67/67/9 68/68/9
f 67/67/9 66/66/9 69/69/9
f 70/70/9 71/71/9 72/72/9
f 70/70/9 66/66/9 68/68/9
f 66/66/9 70/70/9 72/72/9
f 71/71/9 70/70/9 73/73/9
f 74/74/8 75/75/8 76/76/8
f 77/77/8 76/76/8 78/78/8
f 77/77/8 79/79/8 80/80/8
f 79/79/8 77/77/8 78/78/8
f 76/76/8 77/77/8 74/74/8
f 75/75/8 74/74/8 81/81/8
f 81/81/8 82/82/8 75/75/8
f 82/82/8 81/81/8 83/83/8
f 84/84/10 85/85/10 86/86/10
f 86/86/10 87/87/10 88/88/10
f 87/87/10 86/86/10 85/85/10
f 89/89/10 90/90/10 91/91/10
f 91/91/10 90/90/10 92/92/10
f 92/92/10 85/85/10 84/84/10
f 93/93/10 87/87/10 94/94/10
f 95/95/10 96/96/10 97/97/10
f 95/95/10 98/98/10 96/96/10
f 97/97/10 99/99/10 95/95/10
f 87/87/10 93/93/10 88/88/10
f 100/100/10 101/101/10 98/98/10
f 90/90/10 95/95/10 85/85/10
f 100/100/10 102/102/10 103/103/10
f 85/85/10 92/92/10 90/90/10
f 90/90/10 89/89/10 104/104/10
f 102/102/10 90/90/10 104/104/10
f 98/98/10 95/95/10 100/100/10
f 100/100/10 105/105/10 101/101/10
f 105/105/10 100/100/10 103/103/10
f 95/95/10 90/90/10 100/100/10
f 90/90/10 102/102/10 100/100/10
f 99/99/10 97/97/10 106/106/10
